<?xml version="1.0" encoding="iso-8859-1"?>
<!-- Generator: Adobe Illustrator 19.0.0, SVG Export Plug-In . SVG Version: 6.00 Build 0)  -->
<svg version="1.1" id="Capa_1" xmlns="http://www.w3.org/2000/svg" xmlns:xlink="http://www.w3.org/1999/xlink" x="0px" y="0px"
	 viewBox="0 0 315.2 315.2" style="enable-background:new 0 0 315.2 315.2;" xml:space="preserve">
<path style="fill:#FF4948;" d="M286.578,228l20-132c2.4-16.8-9.2-30.4-26-30.4h-196c-16.8,0-28.4,13.6-26,30.4l20,132H286.578z"/>
<path style="fill:#FF6969;" d="M105.378,66h-20.8c-16.8,0-28.4,13.6-26,30.4l20,132h20.8l-20-132C76.978,79.6,88.578,66,105.378,66z
	"/>
<g>
	<path style="fill:#231F20;" d="M305.378,70.8c-6-7.2-14.8-11.2-24.8-11.2h-196c-10,0-18.8,4-24.8,11.2c-0.4,0.4-0.8,1.2-1.2,1.6
		l-13.6-67.6c-0.4-2.8-3.2-4.8-6-4.8h-30.8c-3.2,0-6,2.8-6,6s2.8,6,6,6h25.2l24,117.6l16,104.8l0,0l4.4,24c0.4,2.8,3.2,5.2,6,5.2
		h198.4c3.2,0,6-2.8,6-6s-2.8-6-6-6h-193.2l-3.2-16.8h206l20.8-137.2C314.178,87.2,311.378,78,305.378,70.8z M84.578,72h196
		c6.4,0,12,2.4,15.6,6.8c2.4,2.8,3.6,6,4.4,10h-236c0.4-3.6,2-7.2,4.4-10C72.578,74.4,78.178,72,84.578,72z M281.378,222h-197.6
		l-18.4-121.2h234.4L281.378,222z"/>
	<circle style="fill:#231F20;" cx="105.378" cy="294.8" r="20.4"/>
	<circle style="fill:#231F20;" cx="261.778" cy="294.8" r="20.4"/>
	<path style="fill:#231F20;" d="M108.178,118.8c-0.8-3.2-4-5.6-7.2-4.8s-5.6,4-4.8,7.2l16.4,79.2c0.4,2.8,3.2,4.8,6,4.8
		c0.4,0,0.8,0,1.2,0c3.2-0.8,5.6-4,4.8-7.2L108.178,118.8z"/>
	<path style="fill:#231F20;" d="M141.778,113.6c-3.2,0.4-5.6,3.6-5.6,6.8l9.2,80.4c0.4,3.2,3.2,5.6,6,5.6c0.4,0,0.4,0,0.8,0
		c3.2-0.4,5.6-3.6,5.6-6.8l-9.2-80.4C148.178,115.6,144.978,113.2,141.778,113.6z"/>
	<path style="fill:#231F20;" d="M262.978,114.4c-3.2-0.8-6.4,1.6-7.2,4.8l-16.4,79.2c-0.8,3.2,1.6,6.4,4.8,7.2c0.4,0,0.8,0,1.2,0
		c2.8,0,5.2-2,6-4.8l16.4-79.2C268.178,118,266.178,114.8,262.978,114.4z"/>
	<path style="fill:#231F20;" d="M222.178,113.6c-3.2-0.4-6.4,2-6.8,5.6l-9.2,80.4c-0.4,3.2,2,6.4,5.6,6.8c0.4,0,0.4,0,0.8,0
		c3.2,0,5.6-2.4,6-5.6l9.2-80.4C228.178,116.8,225.378,114,222.178,113.6z"/>
	<path style="fill:#231F20;" d="M182.578,113.6c-3.2,0-6,2.8-6,6V200c0,3.2,2.8,6,6,6s6-2.8,6-6v-80.4
		C188.578,116.4,185.778,113.6,182.578,113.6z"/>
</g>
<g>
</g>
<g>
</g>
<g>
</g>
<g>
</g>
<g>
</g>
<g>
</g>
<g>
</g>
<g>
</g>
<g>
</g>
<g>
</g>
<g>
</g>
<g>
</g>
<g>
</g>
<g>
</g>
<g>
</g>
</svg>
